<svg xmlns="http://www.w3.org/2000/svg" viewBox="0 0 742 240" width="742" height="240" role="img" aria-label="Хочу в отпуск — галочка с самолётом"><title>Хочу в отпуск — галочка с самолётом</title><rect x="20" y="40" width="702" height="160" rx="44" fill="#ff7a59"/>
     <circle cx="108" cy="124" r="52" fill="#ffffff"/>
     <path d="M82 126l18 19L130 100" fill="none" stroke="#ff7a59" stroke-width="13" stroke-linecap="round" stroke-linejoin="round"/>
     <path d="M126 106L176 70L158 120L146 104Z" fill="#ffffff" stroke="#ff7a59" stroke-width="5" stroke-linejoin="round"/>
     <path d="M214.51 118L200.37 118L215.81 95.87L201.36 74.54L215.44 74.54L223.19 86.32L230.88 74.54L245.14 74.54L230.88 95.31L246.38 118L231.93 118L223.19 105.17L214.51 118M266.33 118.56L266.33 118.56Q260.81 118.56 256.54 116.33Q252.26 114.09 249.81 110.16Q247.36 106.22 247.36 101.14L247.36 101.14Q247.36 96.05 249.81 92.15Q252.26 88.24 256.54 86.04Q260.81 83.84 266.33 83.84L266.33 83.84Q271.85 83.84 276.16 86.04Q280.47 88.24 282.89 92.15Q285.3 96.05 285.3 101.14L285.3 101.14Q285.3 106.22 282.89 110.16Q280.47 114.09 276.16 116.33Q271.85 118.56 266.33 118.56M266.33 109.2L266.33 109.2Q268.38 109.2 269.96 108.27Q271.54 107.34 272.47 105.51Q273.4 103.68 273.4 101.14L273.4 101.14Q273.4 98.59 272.47 96.83Q271.54 95.06 269.96 94.13Q268.38 93.2 266.33 93.2L266.33 93.2Q264.35 93.2 262.77 94.13Q261.19 95.06 260.23 96.83Q259.26 98.59 259.26 101.14L259.26 101.14Q259.26 103.68 260.23 105.51Q261.19 107.34 262.77 108.27Q264.35 109.2 266.33 109.2M301.73 107.96L301.73 107.96Q294.72 107.96 291.15 104.83Q287.59 101.69 287.59 94.81L287.59 94.81L287.59 84.4L299.37 84.4L299.37 94.01Q299.37 96.86 300.67 98.04Q301.97 99.21 304.45 99.21L304.45 99.21Q306.38 99.21 308.05 98.72L308.05 98.72Q309.23 98.41 310.28 97.91L310.28 97.91L310.28 84.4L322 84.4L322 118L310.28 118L310.28 106.03Q308.86 106.78 307.06 107.27L307.06 107.27Q304.76 107.96 301.73 107.96M335.14 130.59L335.14 130.59Q332.47 130.59 329.77 129.75Q327.08 128.91 325.4 127.55L325.4 127.55L329.49 119.3Q330.55 120.23 331.94 120.76Q333.34 121.29 334.7 121.29L334.7 121.29Q336.62 121.29 337.74 120.42L337.74 120.42Q338.61 119.74 339.29 118.43L339.29 118.43L324.91 84.4L337 84.4L345.24 104.92L353.55 84.4L364.77 84.4L350.26 119.36Q348.53 123.7 346.27 126.15Q344 128.6 341.24 129.59Q338.48 130.59 335.14 130.59M402.89 118L383.98 118L383.98 84.4L402.02 84.4Q408.53 84.4 412.19 86.66Q415.84 88.92 415.84 93.14L415.84 93.14Q415.84 97.17 412.5 99.52L412.5 99.52Q411.81 100.02 411.07 100.39L411.07 100.39Q412.56 100.89 413.74 101.69L413.74 101.69Q416.84 103.99 416.84 108.33L416.84 108.33Q416.84 112.79 413.4 115.4Q409.95 118 402.89 118L402.89 118M394.52 104.17L394.52 110.37L401.83 110.37Q404 110.37 405.06 109.6Q406.11 108.82 406.11 107.27L406.11 107.27Q406.11 105.66 405.09 104.92Q404.06 104.17 401.96 104.17L401.96 104.17L394.52 104.17M394.52 91.96L394.52 97.91L400.96 97.91Q403.07 97.91 404.06 97.14Q405.06 96.36 405.06 94.87Q405.06 93.39 404.06 92.67Q403.07 91.96 400.96 91.96L400.96 91.96L394.52 91.96M454.7 118.56L454.7 118.56Q449.18 118.56 444.91 116.33Q440.63 114.09 438.18 110.16Q435.73 106.22 435.73 101.14L435.73 101.14Q435.73 96.05 438.18 92.15Q440.63 88.24 444.91 86.04Q449.18 83.84 454.7 83.84L454.7 83.84Q460.22 83.84 464.53 86.04Q468.84 88.24 471.26 92.15Q473.67 96.05 473.67 101.14L473.67 101.14Q473.67 106.22 471.26 110.16Q468.84 114.09 464.53 116.33Q460.22 118.56 454.7 118.56M454.7 109.2L454.7 109.2Q456.75 109.2 458.33 108.27Q459.91 107.34 460.84 105.51Q461.77 103.68 461.77 101.14L461.77 101.14Q461.77 98.59 460.84 96.83Q459.91 95.06 458.33 94.13Q456.75 93.2 454.7 93.2L454.7 93.2Q452.72 93.2 451.14 94.13Q449.56 95.06 448.6 96.83Q447.63 98.59 447.63 101.14L447.63 101.14Q447.63 103.68 448.6 105.51Q449.56 107.34 451.14 108.27Q452.72 109.2 454.7 109.2M497.41 118L485.69 118L485.69 93.76L474.84 93.76L474.84 84.4L508.2 84.4L508.2 93.76L497.41 93.76L497.41 118M523.51 118L511.79 118L511.79 84.4L546.51 84.4L546.51 118L534.79 118L534.79 93.76L523.51 93.76L523.51 118M559.71 130.59L559.71 130.59Q557.04 130.59 554.34 129.75Q551.65 128.91 549.97 127.55L549.97 127.55L554.06 119.3Q555.12 120.23 556.51 120.76Q557.91 121.29 559.27 121.29L559.27 121.29Q561.19 121.29 562.31 120.42L562.31 120.42Q563.18 119.74 563.86 118.43L563.86 118.43L549.48 84.4L561.57 84.4L569.81 104.92L578.12 84.4L589.34 84.4L574.83 119.36Q573.1 123.7 570.84 126.15Q568.57 128.6 565.81 129.59Q563.05 130.59 559.71 130.59M609.05 118.56L609.05 118.56Q603.47 118.56 599.1 116.33Q594.73 114.09 592.25 110.16Q589.77 106.22 589.77 101.14L589.77 101.14Q589.77 96.05 592.25 92.15Q594.73 88.24 599.1 86.04Q603.47 83.84 609.05 83.84L609.05 83.84Q614.75 83.84 618.91 86.26Q623.06 88.67 624.8 93.08L624.8 93.08L615.68 97.73Q614.51 95.37 612.77 94.29Q611.03 93.2 608.99 93.2L608.99 93.2Q606.94 93.2 605.27 94.13Q603.59 95.06 602.63 96.83Q601.67 98.59 601.67 101.14L601.67 101.14Q601.67 103.74 602.63 105.54Q603.59 107.34 605.27 108.27Q606.94 109.2 608.99 109.2L608.99 109.2Q611.03 109.2 612.77 108.11Q614.51 107.03 615.68 104.67L615.68 104.67L624.8 109.32Q623.06 113.72 618.91 116.14Q614.75 118.56 609.05 118.56M666.14 118L652.26 118L644.44 106.03L640.48 106.03L640.48 118L628.7 118L628.7 84.4L640.48 84.4L640.48 96.8L644.69 96.8L652.94 84.4L665.4 84.4L654.12 100.52L666.14 118" fill="#ffffff"/><path d="M208.91 156L203.39 156L203.39 144.8L208.61 144.8Q210.56 144.8 211.65 145.55Q212.74 146.3 212.74 147.7L212.74 147.7Q212.74 149.07 211.71 149.82L211.71 149.82Q211.46 150.02 211.17 150.16L211.17 150.16Q211.78 150.35 212.22 150.67L212.22 150.67Q213.26 151.42 213.26 152.85L213.26 152.85Q213.26 154.32 212.15 155.16Q211.04 156 208.91 156L208.91 156M205.97 151.25L205.97 154.08L208.82 154.08Q209.71 154.08 210.18 153.73Q210.64 153.38 210.64 152.64L210.64 152.64Q210.64 151.94 210.18 151.59Q209.71 151.25 208.82 151.25L208.82 151.25L205.97 151.25M205.97 146.72L205.97 149.44L208.38 149.44Q209.23 149.44 209.66 149.1Q210.1 148.75 210.1 148.08Q210.1 147.41 209.66 147.06Q209.23 146.72 208.38 146.72L208.38 146.72L205.97 146.72M223.37 156L218.31 156L218.31 144.8L220.89 144.8L220.89 148.48L223.74 148.48Q225.77 148.48 226.87 149.38Q227.98 150.29 227.98 152.1L227.98 152.1Q227.98 154.02 226.75 155.01Q225.53 156 223.37 156L223.37 156M220.89 150.4L220.89 154.08L223.22 154.08Q224.22 154.08 224.79 153.58Q225.37 153.09 225.37 152.14L225.37 152.14Q225.37 151.22 224.8 150.81Q224.23 150.4 223.22 150.4L223.22 150.4L220.89 150.4M231.98 156L229.4 156L229.4 144.8L231.98 144.8L231.98 156M237.87 156.18L237.87 156.18Q237.58 156.18 237.27 156.13Q236.96 156.08 236.59 156L236.59 156L236.75 153.81Q236.98 153.87 237.22 153.87L237.22 153.87Q237.87 153.87 238.24 153.34Q238.61 152.8 238.77 151.79Q238.93 150.78 238.98 149.34L238.98 149.34L239.14 144.8L247.74 144.8L247.74 156L245.18 156L245.18 146.91L241.34 146.91L241.26 149.25Q241.22 150.9 241.04 152.18Q240.86 153.46 240.5 154.35Q240.13 155.25 239.49 155.71Q238.85 156.18 237.87 156.18M262.22 156L253.54 156L253.54 144.8L262.01 144.8L262.01 146.88L256.12 146.88L256.12 149.31L261.32 149.31L261.32 151.33L256.12 151.33L256.12 153.92L262.22 153.92L262.22 156M272.29 156L269.73 156L269.73 146.91L266.16 146.91L266.16 144.8L275.87 144.8L275.87 146.91L272.29 146.91L272.29 156M290.56 156L287.98 156L287.98 144.8L298.19 144.8L298.19 156L295.62 156L295.62 146.91L290.56 146.91L290.56 156M309.34 156.19L309.34 156.19Q308.01 156.19 306.88 155.76Q305.75 155.33 304.93 154.54Q304.1 153.76 303.65 152.7Q303.19 151.65 303.19 150.4L303.19 150.4Q303.19 149.15 303.65 148.1Q304.1 147.04 304.94 146.26Q305.77 145.47 306.89 145.04Q308.01 144.61 309.32 144.61L309.32 144.61Q310.65 144.61 311.76 145.04Q312.87 145.47 313.7 146.26Q314.52 147.04 314.98 148.09Q315.45 149.14 315.45 150.4L315.45 150.4Q315.45 151.65 314.98 152.71Q314.52 153.78 313.7 154.55Q312.87 155.33 311.76 155.76Q310.65 156.19 309.34 156.19M309.32 153.98L309.32 153.98Q310.07 153.98 310.7 153.73Q311.34 153.47 311.82 152.99Q312.3 152.51 312.56 151.86Q312.82 151.2 312.82 150.4L312.82 150.4Q312.82 149.6 312.56 148.94Q312.3 148.29 311.82 147.81Q311.35 147.33 310.71 147.07Q310.07 146.82 309.32 146.82L309.32 146.82Q308.57 146.82 307.94 147.07Q307.3 147.33 306.82 147.81Q306.34 148.29 306.08 148.94Q305.82 149.6 305.82 150.4L305.82 150.4Q305.82 151.18 306.08 151.85Q306.34 152.51 306.82 152.99Q307.29 153.47 307.93 153.73Q308.57 153.98 309.32 153.98M321.7 158.32L319.3 158.32L319.31 153.89L319.74 153.89Q320.27 153.87 320.62 153.49L320.62 153.49Q320.99 153.07 321.22 152.31Q321.44 151.55 321.54 150.53Q321.65 149.5 321.7 148.3L321.7 148.3L321.82 144.8L330.43 144.8L330.43 153.89L332 153.89L332 158.32L329.6 158.32L329.6 156L321.7 156L321.7 158.32M322.86 153.89L322.86 153.89L327.87 153.89L327.87 146.91L324.03 146.91L323.98 148.54Q323.94 149.58 323.85 150.51Q323.76 151.44 323.58 152.2Q323.41 152.96 323.14 153.49L323.14 153.49Q323.01 153.71 322.86 153.89M341.72 156L339.16 156L339.16 146.91L335.59 146.91L335.59 144.8L345.3 144.8L345.3 146.91L341.72 146.91L341.72 156M355.46 156L349.94 156L349.94 144.8L355.15 144.8Q357.1 144.8 358.19 145.55Q359.28 146.3 359.28 147.7L359.28 147.7Q359.28 149.07 358.26 149.82L358.26 149.82Q358 150.02 357.71 150.16L357.71 150.16Q358.32 150.35 358.77 150.67L358.77 150.67Q359.81 151.42 359.81 152.85L359.81 152.85Q359.81 154.32 358.7 155.16Q357.58 156 355.46 156L355.46 156M352.51 151.25L352.51 154.08L355.36 154.08Q356.26 154.08 356.72 153.73Q357.18 153.38 357.18 152.64L357.18 152.64Q357.18 151.94 356.72 151.59Q356.26 151.25 355.36 151.25L355.36 151.25L352.51 151.25M352.51 146.72L352.51 149.44L354.93 149.44Q355.78 149.44 356.21 149.1Q356.64 148.75 356.64 148.08Q356.64 147.41 356.21 147.06Q355.78 146.72 354.93 146.72L354.93 146.72L352.51 146.72M373.53 156L364.86 156L364.86 144.8L373.32 144.8L373.32 146.88L367.43 146.88L367.43 149.31L372.63 149.31L372.63 151.33L367.43 151.33L367.43 153.92L373.53 153.92L373.53 156M381.22 156L378.62 156L378.62 144.8L383.47 144.8Q384.98 144.8 386.06 145.29Q387.15 145.78 387.74 146.69Q388.34 147.6 388.34 148.86L388.34 148.86Q388.34 150.11 387.74 151.02Q387.15 151.94 386.06 152.42Q384.98 152.91 383.47 152.91L383.47 152.91L381.22 152.91L381.22 156M381.22 146.91L381.22 150.8L383.33 150.8Q384.53 150.8 385.12 150.29Q385.71 149.78 385.71 148.86L385.71 148.86Q385.71 147.94 385.12 147.42Q384.53 146.91 383.33 146.91L383.33 146.91L381.22 146.91M408.87 156L405.88 156L403.37 151.49L401.74 151.49L401.74 156L399.19 156L399.19 151.49L397.53 151.49L395.02 156L392.02 156L395.38 150.14L392.23 144.8L394.97 144.8L397.48 149.33L399.19 149.33L399.19 144.8L401.74 144.8L401.74 149.33L403.4 149.33L405.93 144.8L408.66 144.8L405.53 150.14L408.87 156M414.72 158.32L412.32 158.32L412.34 153.89L412.77 153.89Q413.3 153.87 413.65 153.49L413.65 153.49Q414.02 153.07 414.24 152.31Q414.46 151.55 414.57 150.53Q414.67 149.5 414.72 148.3L414.72 148.3L414.85 144.8L423.46 144.8L423.46 153.89L425.02 153.89L425.02 158.32L422.62 158.32L422.62 156L414.72 156L414.72 158.32M415.89 153.89L415.89 153.89L420.9 153.89L420.9 146.91L417.06 146.91L417.01 148.54Q416.96 149.58 416.87 150.51Q416.78 151.44 416.61 152.2Q416.43 152.96 416.16 153.49L416.16 153.49Q416.03 153.71 415.89 153.89M438.44 156L429.77 156L429.77 144.8L438.23 144.8L438.23 146.88L432.34 146.88L432.34 149.31L437.54 149.31L437.54 151.33L432.34 151.33L432.34 153.92L438.44 153.92L438.44 156M435.62 143.81L435.62 143.81Q435.16 143.81 434.84 143.5Q434.52 143.2 434.52 142.7L434.52 142.7Q434.52 142.21 434.84 141.9Q435.16 141.6 435.62 141.6L435.62 141.6Q436.09 141.6 436.42 141.9Q436.74 142.21 436.74 142.7L436.74 142.7Q436.74 143.2 436.42 143.5Q436.09 143.81 435.62 143.81M432.39 143.81L432.39 143.81Q431.93 143.81 431.6 143.5Q431.27 143.2 431.27 142.7L431.27 142.7Q431.27 142.21 431.6 141.9Q431.93 141.6 432.39 141.6L432.39 141.6Q432.86 141.6 433.18 141.9Q433.5 142.21 433.5 142.7L433.5 142.7Q433.5 143.2 433.18 143.5Q432.86 143.81 432.39 143.81M453.81 156L451.22 156L451.22 151.41L446.13 151.41L446.13 156L443.54 156L443.54 144.8L446.13 144.8L446.13 149.22L451.22 149.22L451.22 144.8L453.81 144.8L453.81 156" fill="#ffffff" opacity=".9"/></svg>