<svg xmlns="http://www.w3.org/2000/svg" viewBox="0 0 400 480" width="400" height="480" role="img" aria-label="Хочу в отпуск — закат и семья пальм"><title>Хочу в отпуск — закат и семья пальм</title><rect width="400" height="360" rx="28" fill="#fbf5ea"/>
  <path d="M36.37959504700848 30.4L28 28.692237550050777L65.77777777777777 26.034503298666095L103.55555555555556 28.68071034125751L141.33333333333331 27.279434471885907L179.11111111111111 25.76301634090487L216.88888888888889 25.095443727390375L254.66666666666666 28.27974822508986L292.44444444444446 28.924577367070015L330.22222222222223 28.88957963068333L368 27.13295006772387L358.27457762270933 41.4L370 50.2L365.55879079917213 61.2L368 69.0033682880603L330.22222222222223 67.50763778263354L292.44444444444446 67.46306613084744L254.66666666666666 69.08214467874495L216.88888888888889 69.79840759586659L179.11111111111111 70.43676445065648L141.33333333333331 68.92163258423534L103.55555555555556 70.47201938673243L65.77777777777777 69.61472620120912L28 68.95543355643167L24.475048476364464 52.4L32.85609309143911 39.2Z" fill="#f0553a"/><path d="M61.87138349174347 82.4L60 80.76494637434371L95.55555555555556 78.8429697379288L131.11111111111111 79.24440820138261L166.66666666666669 80.6341294265294L202.22222222222223 77.43965712958016L237.77777777777777 80.48904693301301L273.33333333333337 79.10291191891883L308.8888888888889 77.23958301100356L344.44444444444446 77.48333755529166L380 80.96427121905435L370.62184886907926 93.4L382 102.2L374.90734425582923 113.2L380 121.40192702418426L344.44444444444446 121.58687247903435L308.8888888888889 120.97626361079165L273.33333333333337 119.33819968212629L237.77777777777777 122.93312811633223L202.22222222222223 120.69384955797432L166.66666666666669 120.35059353272663L131.11111111111111 122.83649134635925L95.55555555555556 119.3511486313364L60 120.43599345165421L60.19932096563571 104.4L60.1656381473731 91.2Z" fill="#ff8a3d"/><path d="M30.078005755080085 134.4L24 132.38271289496333L61.333333333333336 129.8877364953005L98.66666666666667 130.27655690224128L136 130.23406714882003L173.33333333333334 131.36009723634925L210.66666666666666 130.84305872535333L248 131.91059534688247L285.3333333333333 131.07942061283393L322.6666666666667 132.1403580099577L360 131.00618717513498L356.96093176020076 145.4L362 154.2L349.57420342057594 165.2L360 174.04996437297086L322.6666666666667 173.7195242625021L285.3333333333333 172.88060577533906L248 171.11333629045112L210.66666666666666 173.8821379951405L173.33333333333334 173.59737687153756L136 174.78376646808465L98.66666666666667 171.5529343095841L61.333333333333336 173.93718284729403L24 174.55454824146L23.367045933337067 156.4L26.192499599477742 143.2Z" fill="#ffbf3c"/><path d="M77.77792452949143 186.4L70 181.74313532869564L104.44444444444444 184.01624931873812L138.88888888888889 183.91034390334244L173.33333333333331 181.74056441988796L207.77777777777777 183.1372110468801L242.22222222222223 181.5293884149578L276.66666666666663 182.11091127284453L311.1111111111111 181.31798169139074L345.55555555555554 183.79258669468982L380 181.03155210024852L371.7890013875294 197.4L382 206.2L369.23795182048343 217.2L380 223.0640121017932L345.55555555555554 225.25960777548607L311.1111111111111 226.48457506569684L276.66666666666663 223.6619836497266L242.22222222222223 223.19083728005717L207.77777777777777 223.25858187823906L173.33333333333331 226.56295083467558L138.88888888888889 226.2485952382267L104.44444444444444 224.84493033631588L70 223.65198238025187L67.22896053777367 208.4L77.14330917071493 195.2Z" fill="#1fa7a8"/><path d="M24.290124747016307 238L24 236.8293699362839L60.666666666666664 235.25056978760404L97.33333333333333 235.23567348871438L134 235.66208833122073L170.66666666666666 234.64397400658345L207.33333333333334 235.38689911966503L244 234.41506167853368L280.6666666666667 234.60729096404975L317.3333333333333 235.62898579603643L354 233.75335118935618L353.31280174177664 248L356 256L343.35331838938873 266L354 271.57125644615735L317.3333333333333 274.1126377278997L280.6666666666667 271.20905779479654L244 274.9001071743769L207.33333333333334 273.79503654334985L170.66666666666666 271.95548624724324L134 273.29754252472776L97.33333333333333 271.3136076714727L60.666666666666664 274.99655885697575L24 272.2472895208921L23.772653957421426 258L31.211064812508994 246Z" fill="#8fd6d6"/><path d="M50.828282324207976 284L48 279.378567299922L82.44444444444444 279.15918496687664L116.88888888888889 280.82095800460957L151.33333333333331 280.0536967473963L185.77777777777777 279.6563461646838L220.22222222222223 282.1525055795064L254.66666666666666 282.4641485349566L289.1111111111111 280.39604580946616L323.55555555555554 280.0319366429467L358 281.7700589601591L347.6887700895204 294L360 302L352.90729002705484 312L358 319.40223422434065L323.55555555555554 320.6128345033212L289.1111111111111 320.05991485559207L254.66666666666666 319.9985830687883L220.22222222222223 317.68352090296685L185.77777777777777 320.08196803227474L151.33333333333331 319.4365203049383L116.88888888888889 320.2313157351455L82.44444444444444 318.5143543493177L48 318.1185644044017L47.119125280936714 304L55.176099789576256 292Z" fill="#2a7fb8"/>
  <circle cx="132" cy="106" r="52" fill="#f0553a"/>
  <path d="M30 332Q200 296 372 330Q372 346 340 350H60Q30 350 30 332Z" fill="#12324a"/>
  <path d="M110 322Q108.4 253.8 102 198" fill="none" stroke="#12324a" stroke-width="7.3500000000000005" stroke-linecap="round"/>
    <g transform="translate(102 198)"><path transform="rotate(-170)" d="M0 0C18.375 -23.1 51.449999999999996 -20.790000000000003 73.5 16.17C51.449999999999996 -2.31 25.724999999999998 -3.4650000000000003 0 0Z" fill="#12324a"/><path transform="rotate(-140)" d="M0 0C20.212500000000002 -23.1 56.595 -20.790000000000003 80.85000000000001 17.787000000000003C56.595 -2.31 28.2975 -3.4650000000000003 0 0Z" fill="#12324a"/><path transform="rotate(-105)" d="M0 0C18.375 -23.1 51.449999999999996 -20.790000000000003 73.5 16.17C51.449999999999996 -2.31 25.724999999999998 -3.4650000000000003 0 0Z" fill="#12324a"/><path transform="rotate(-75)" d="M0 0C18.375 -23.1 51.449999999999996 -20.790000000000003 73.5 16.17C51.449999999999996 -2.31 25.724999999999998 -3.4650000000000003 0 0Z" fill="#12324a"/><path transform="rotate(-40)" d="M0 0C20.212500000000002 -23.1 56.595 -20.790000000000003 80.85000000000001 17.787000000000003C56.595 -2.31 28.2975 -3.4650000000000003 0 0Z" fill="#12324a"/><path transform="rotate(-10)" d="M0 0C18.375 -23.1 51.449999999999996 -20.790000000000003 73.5 16.17C51.449999999999996 -2.31 25.724999999999998 -3.4650000000000003 0 0Z" fill="#12324a"/><circle r="4.2" fill="#12324a"/></g><path d="M214 314Q215.2 226 220 154" fill="none" stroke="#12324a" stroke-width="8.4" stroke-linecap="round"/>
    <g transform="translate(220 154)"><path transform="rotate(-170)" d="M0 0C21 -26.4 58.8 -23.759999999999998 84 18.48C58.8 -2.64 29.4 -3.9599999999999995 0 0Z" fill="#12324a"/><path transform="rotate(-140)" d="M0 0C23.1 -26.4 64.68 -23.759999999999998 92.4 20.328000000000003C64.68 -2.64 32.34 -3.9599999999999995 0 0Z" fill="#12324a"/><path transform="rotate(-105)" d="M0 0C21 -26.4 58.8 -23.759999999999998 84 18.48C58.8 -2.64 29.4 -3.9599999999999995 0 0Z" fill="#12324a"/><path transform="rotate(-75)" d="M0 0C21 -26.4 58.8 -23.759999999999998 84 18.48C58.8 -2.64 29.4 -3.9599999999999995 0 0Z" fill="#12324a"/><path transform="rotate(-40)" d="M0 0C23.1 -26.4 64.68 -23.759999999999998 92.4 20.328000000000003C64.68 -2.64 32.34 -3.9599999999999995 0 0Z" fill="#12324a"/><path transform="rotate(-10)" d="M0 0C21 -26.4 58.8 -23.759999999999998 84 18.48C58.8 -2.64 29.4 -3.9599999999999995 0 0Z" fill="#12324a"/><circle r="4.8" fill="#12324a"/></g><path d="M300 322Q302.8 269.2 314 226" fill="none" stroke="#12324a" stroke-width="6.3" stroke-linecap="round"/>
    <g transform="translate(314 226)"><path transform="rotate(-170)" d="M0 0C15.75 -19.8 44.099999999999994 -17.82 63 13.86C44.099999999999994 -1.9800000000000002 22.049999999999997 -2.97 0 0Z" fill="#12324a"/><path transform="rotate(-140)" d="M0 0C17.325000000000003 -19.8 48.510000000000005 -17.82 69.30000000000001 15.246000000000002C48.510000000000005 -1.9800000000000002 24.255000000000003 -2.97 0 0Z" fill="#12324a"/><path transform="rotate(-105)" d="M0 0C15.75 -19.8 44.099999999999994 -17.82 63 13.86C44.099999999999994 -1.9800000000000002 22.049999999999997 -2.97 0 0Z" fill="#12324a"/><path transform="rotate(-75)" d="M0 0C15.75 -19.8 44.099999999999994 -17.82 63 13.86C44.099999999999994 -1.9800000000000002 22.049999999999997 -2.97 0 0Z" fill="#12324a"/><path transform="rotate(-40)" d="M0 0C17.325000000000003 -19.8 48.510000000000005 -17.82 69.30000000000001 15.246000000000002C48.510000000000005 -1.9800000000000002 24.255000000000003 -2.97 0 0Z" fill="#12324a"/><path transform="rotate(-10)" d="M0 0C15.75 -19.8 44.099999999999994 -17.82 63 13.86C44.099999999999994 -1.9800000000000002 22.049999999999997 -2.97 0 0Z" fill="#12324a"/><circle r="3.6" fill="#12324a"/></g>
  <path d="M150 140Q230 100 300 96" fill="none" stroke="#12324a" stroke-width="3" stroke-dasharray="2 8" stroke-linecap="round" opacity=".5"/>
  <g transform="translate(334 92) rotate(-12) scale(0.85) translate(-50 -20)" fill="#12324a">
    <path d="M4 20Q4 14 22 13.5L80 13Q99 14 99 20Q99 26 80 27L22 26.5Q4 26 4 20Z"/>
    <path d="M58 15L38 -1 29 -1 45 15ZM58 25L38 41 29 41 45 25Z"/>
    <path d="M17 16L8 7 3 7 9 16ZM17 24L8 33 3 33 9 24Z"/></g>
  <g fill="none" stroke="#12324a" stroke-width="3" stroke-linecap="round"><path d="M70 64q7-8 14 0q7-8 14 0M330 118q6-7 12 0q6-7 12 0"/></g><path d="M19.84 428.36L19.84 428.36Q18.46 428.36 17.55 427.6Q16.64 426.85 16.5 425.7Q16.36 424.55 17.27 423.36L17.27 423.36L24.44 413.9L17.51 404.74Q16.6 403.52 16.73 402.37Q16.87 401.22 17.78 400.47Q18.7 399.71 20.08 399.71L20.08 399.71Q21.23 399.71 22.1 400.27Q22.97 400.82 23.85 402.05L23.85 402.05L28.56 408.59L33.31 402.05Q34.19 400.78 35.06 400.25Q35.93 399.71 37.08 399.71L37.08 399.71Q38.5 399.71 39.42 400.45Q40.33 401.18 40.47 402.33Q40.6 403.48 39.65 404.74L39.65 404.74L32.68 413.94L39.85 423.36Q40.8 424.55 40.66 425.7Q40.53 426.85 39.61 427.6Q38.7 428.36 37.28 428.36L37.28 428.36Q36.17 428.36 35.3 427.82Q34.42 427.29 33.51 426.02L33.51 426.02L28.56 419.17L23.65 426.02Q22.74 427.29 21.87 427.82Q20.99 428.36 19.84 428.36M61.39 428.44L61.39 428.44Q57.15 428.44 53.94 426.63Q50.74 424.83 48.97 421.58Q47.21 418.33 47.21 414.01L47.21 414.01Q47.21 410.77 48.22 408.11Q49.23 405.46 51.11 403.56Q52.99 401.65 55.61 400.64Q58.22 399.63 61.39 399.63L61.39 399.63Q65.63 399.63 68.82 401.42Q72.01 403.2 73.79 406.43Q75.58 409.66 75.58 414.01L75.58 414.01Q75.58 417.26 74.57 419.92Q73.56 422.57 71.67 424.49Q69.79 426.42 67.18 427.43Q64.56 428.44 61.39 428.44M61.39 422.33L61.39 422.33Q63.49 422.33 64.96 421.34Q66.42 420.35 67.22 418.49Q68.01 416.63 68.01 414.01L68.01 414.01Q68.01 410.09 66.27 407.91Q64.52 405.73 61.39 405.73L61.39 405.73Q59.33 405.73 57.85 406.71Q56.36 407.68 55.57 409.52Q54.78 411.36 54.78 414.01L54.78 414.01Q54.78 417.94 56.52 420.14Q58.26 422.33 61.39 422.33M102.78 428.36L102.78 428.36Q101 428.36 100.05 427.39Q99.1 426.42 99.1 424.63L99.1 424.63L99.1 418.17Q98.27 418.53 96.82 418.77Q95.37 419.01 93.99 419.01L93.99 419.01Q90.26 419.01 87.61 417.7Q84.95 416.39 83.59 413.72Q82.22 411.04 82.22 406.96L82.22 406.96L82.22 403.44Q82.22 401.61 83.15 400.66Q84.08 399.71 85.87 399.71L85.87 399.71Q87.61 399.71 88.54 400.66Q89.47 401.61 89.47 403.44L89.47 403.44L89.47 406.73Q89.47 410.01 90.84 411.46Q92.2 412.91 94.9 412.91L94.9 412.91Q95.89 412.91 97.04 412.71Q98.19 412.51 99.1 412.11L99.1 412.11L99.1 403.44Q99.1 401.61 100.05 400.66Q101 399.71 102.78 399.71L102.78 399.71Q104.53 399.71 105.46 400.66Q106.39 401.61 106.39 403.44L106.39 403.44L106.39 424.63Q106.39 426.42 105.48 427.39Q104.57 428.36 102.78 428.36M123.25 428.36L123.25 428.36Q121.99 428.36 121.11 427.72Q120.24 427.09 120.04 426Q119.85 424.91 120.52 423.52L120.52 423.52L122.54 419.48L113.39 404.39Q112.68 403.2 112.83 402.11Q112.99 401.02 113.88 400.37Q114.78 399.71 116.16 399.71L116.16 399.71Q117.59 399.71 118.32 400.41Q119.05 401.1 119.77 402.37L119.77 402.37L125.99 412.87L131.22 402.41Q131.73 401.38 132.5 400.54Q133.28 399.71 134.86 399.71L134.86 399.71Q136.13 399.71 137.02 400.33Q137.91 400.94 138.13 402.03Q138.35 403.12 137.6 404.55L137.6 404.55L126.94 425.66Q126.46 426.65 125.65 427.5Q124.84 428.36 123.25 428.36M171.61 428L161.54 428Q159.68 428 158.71 427.03Q157.74 426.06 157.74 424.24L157.74 424.24L157.74 403.83Q157.74 402.01 158.71 401.04Q159.68 400.07 161.54 400.07L161.54 400.07L171.21 400.07Q174.22 400.07 176.34 400.96Q178.46 401.85 179.57 403.48Q180.68 405.1 180.68 407.28L180.68 407.28Q180.68 409.74 179.29 411.48L179.29 411.48Q178.22 412.79 176.56 413.5L176.56 413.5Q178.62 414.09 179.89 415.52L179.89 415.52Q181.43 417.3 181.43 420.08L181.43 420.08Q181.43 423.76 178.8 425.88Q176.16 428 171.61 428L171.61 428M164.71 416.51L164.71 422.65L170.61 422.65Q172.64 422.65 173.57 421.88Q174.5 421.11 174.5 419.56Q174.5 418.02 173.57 417.26Q172.64 416.51 170.61 416.51L170.61 416.51L164.71 416.51M164.71 405.42L164.71 411.16L169.9 411.16Q171.88 411.16 172.81 410.45Q173.74 409.74 173.74 408.27Q173.74 406.8 172.81 406.11Q171.88 405.42 169.9 405.42L169.9 405.42L164.71 405.42M215.32 428.44L215.32 428.44Q211.08 428.44 207.87 426.63Q204.66 424.83 202.9 421.58Q201.14 418.33 201.14 414.01L201.14 414.01Q201.14 410.77 202.15 408.11Q203.16 405.46 205.04 403.56Q206.92 401.65 209.54 400.64Q212.15 399.63 215.32 399.63L215.32 399.63Q219.56 399.63 222.75 401.42Q225.94 403.2 227.72 406.43Q229.5 409.66 229.5 414.01L229.5 414.01Q229.5 417.26 228.49 419.92Q227.48 422.57 225.6 424.49Q223.72 426.42 221.11 427.43Q218.49 428.44 215.32 428.44M215.32 422.33L215.32 422.33Q217.42 422.33 218.89 421.34Q220.35 420.35 221.14 418.49Q221.94 416.63 221.94 414.01L221.94 414.01Q221.94 410.09 220.19 407.91Q218.45 405.73 215.32 405.73L215.32 405.73Q213.26 405.73 211.78 406.71Q210.29 407.68 209.5 409.52Q208.7 411.36 208.7 414.01L208.7 414.01Q208.7 417.94 210.45 420.14Q212.19 422.33 215.32 422.33M247.04 428.36L247.04 428.36Q245.3 428.36 244.35 427.39Q243.4 426.42 243.4 424.67L243.4 424.67L243.4 406.01L237.18 406.01Q235.71 406.01 234.94 405.24Q234.17 404.47 234.17 403.04L234.17 403.04Q234.17 401.58 234.94 400.82Q235.71 400.07 237.18 400.07L237.18 400.07L256.91 400.07Q258.37 400.07 259.15 400.82Q259.92 401.58 259.92 403.04L259.92 403.04Q259.92 404.47 259.15 405.24Q258.37 406.01 256.91 406.01L256.91 406.01L250.69 406.01L250.69 424.67Q250.69 426.42 249.78 427.39Q248.87 428.36 247.04 428.36M268.98 428.36L268.98 428.36Q267.24 428.36 266.29 427.39Q265.34 426.42 265.34 424.63L265.34 424.63L265.34 403.83Q265.34 402.01 266.31 401.04Q267.28 400.07 269.14 400.07L269.14 400.07L287.32 400.07Q289.19 400.07 290.16 401.04Q291.13 402.01 291.13 403.83L291.13 403.83L291.13 424.63Q291.13 426.42 290.2 427.39Q289.27 428.36 287.48 428.36L287.48 428.36Q285.74 428.36 284.79 427.39Q283.84 426.42 283.84 424.63L283.84 424.63L283.84 406.01L272.63 406.01L272.63 424.63Q272.63 426.42 271.71 427.39Q270.8 428.36 268.98 428.36M307.99 428.36L307.99 428.36Q306.73 428.36 305.85 427.72Q304.98 427.09 304.78 426Q304.59 424.91 305.26 423.52L305.26 423.52L307.28 419.48L298.13 404.39Q297.42 403.2 297.57 402.11Q297.73 401.02 298.62 400.37Q299.52 399.71 300.9 399.71L300.9 399.71Q302.33 399.71 303.06 400.41Q303.79 401.1 304.51 402.37L304.51 402.37L310.73 412.87L315.96 402.41Q316.47 401.38 317.24 400.54Q318.02 399.71 319.6 399.71L319.6 399.71Q320.87 399.71 321.76 400.33Q322.65 400.94 322.87 402.03Q323.09 403.12 322.34 404.55L322.34 404.55L311.68 425.66Q311.2 426.65 310.39 427.5Q309.58 428.36 307.99 428.36M343.28 428.44L343.28 428.44Q338.65 428.44 335.32 426.65Q331.99 424.87 330.23 421.62Q328.46 418.37 328.46 414.01L328.46 414.01Q328.46 410.77 329.48 408.11Q330.49 405.46 332.41 403.56Q334.33 401.65 337.08 400.64Q339.84 399.63 343.28 399.63L343.28 399.63Q345.1 399.63 347.07 400.05Q349.03 400.47 350.53 401.3L350.53 401.3Q351.64 401.89 352.08 402.8Q352.51 403.71 352.37 404.67Q352.24 405.62 351.68 406.37Q351.13 407.12 350.25 407.38Q349.38 407.64 348.35 407.12L348.35 407.12Q347.16 406.57 346 406.27Q344.83 405.97 343.56 405.97L343.56 405.97Q341.1 405.97 339.46 406.9Q337.81 407.83 336.98 409.62Q336.15 411.4 336.15 414.01L336.15 414.01Q336.15 416.63 336.98 418.43Q337.81 420.23 339.46 421.17Q341.1 422.1 343.56 422.1L343.56 422.1Q344.59 422.1 345.78 421.84Q346.97 421.58 348.12 421.03L348.12 421.03Q349.3 420.51 350.23 420.75Q351.17 420.99 351.74 421.7Q352.31 422.41 352.47 423.34Q352.63 424.28 352.22 425.19Q351.8 426.1 350.77 426.65L350.77 426.65Q349.38 427.48 347.34 427.96Q345.3 428.44 343.28 428.44M363.08 428.36L363.08 428.36Q361.34 428.36 360.39 427.39Q359.44 426.42 359.44 424.67L359.44 424.67L359.44 403.4Q359.44 401.58 360.39 400.64Q361.34 399.71 363.08 399.71L363.08 399.71Q364.86 399.71 365.79 400.64Q366.72 401.58 366.72 403.4L366.72 403.4L366.72 411.24L369.5 411.24L375.24 401.58Q376 400.35 377.03 399.93Q378.06 399.51 379.07 399.75Q380.08 399.99 380.81 400.72Q381.54 401.46 381.66 402.55Q381.78 403.64 380.99 404.9L380.99 404.9L376.03 412.71Q376.67 413.06 377.26 413.5L377.26 413.5Q379.09 414.97 380.47 417.78L380.47 417.78L383.13 423.21Q383.84 424.67 383.58 425.78Q383.32 426.89 382.45 427.56Q381.58 428.24 380.47 428.36Q379.36 428.48 378.33 427.92Q377.3 427.37 376.71 426.1L376.71 426.1L374.01 420.16Q373.26 418.53 372.15 417.86Q371.04 417.18 369.3 417.18L369.3 417.18L366.72 417.18L366.72 424.67Q366.72 426.42 365.81 427.39Q364.9 428.36 363.08 428.36" fill="#12324a"/><path d="M38.55 462.18L38.55 462.18Q37.79 462.18 37.39 461.76Q36.99 461.34 36.99 460.58L36.99 460.58L36.99 450.46L33.45 450.46Q32.83 450.46 32.49 450.12Q32.15 449.78 32.15 449.18L32.15 449.18Q32.15 448.56 32.49 448.23Q32.83 447.9 33.45 447.9L33.45 447.9L43.63 447.9Q44.25 447.9 44.59 448.23Q44.93 448.56 44.93 449.18L44.93 449.18Q44.93 449.78 44.59 450.12Q44.25 450.46 43.63 450.46L43.63 450.46L40.09 450.46L40.09 460.58Q40.09 461.34 39.7 461.76Q39.31 462.18 38.55 462.18M55.39 462.18L55.39 462.18Q54.85 462.18 54.47 461.9Q54.09 461.62 54.01 461.15Q53.93 460.68 54.23 460.08L54.23 460.08L55.43 457.72L50.55 449.76Q50.23 449.24 50.3 448.77Q50.37 448.3 50.75 448.01Q51.13 447.72 51.73 447.72Q52.33 447.72 52.65 448.02Q52.97 448.32 53.29 448.86L53.29 448.86L56.89 454.88L59.93 448.88Q60.17 448.44 60.5 448.08Q60.83 447.72 61.49 447.72L61.49 447.72Q62.05 447.72 62.42 447.99Q62.79 448.26 62.89 448.73Q62.99 449.2 62.65 449.82L62.65 449.82L56.97 461.02Q56.75 461.46 56.41 461.82Q56.07 462.18 55.39 462.18M71.25 462.18L71.25 462.18Q70.49 462.18 70.09 461.76Q69.69 461.34 69.69 460.58L69.69 460.58L69.69 449.48Q69.69 448.7 70.1 448.3Q70.51 447.9 71.27 447.9L71.27 447.9L76.13 447.9Q78.49 447.9 79.77 449.09Q81.05 450.28 81.05 452.4L81.05 452.4Q81.05 454.52 79.77 455.72Q78.49 456.92 76.13 456.92L76.13 456.92L72.79 456.92L72.79 460.58Q72.79 461.34 72.4 461.76Q72.01 462.18 71.25 462.18M72.79 450.32L72.79 454.52L75.61 454.52Q76.81 454.52 77.44 453.98Q78.07 453.44 78.07 452.4L78.07 452.4Q78.07 451.36 77.44 450.84Q76.81 450.32 75.61 450.32L75.61 450.32L72.79 450.32M94.05 462L89.59 462Q88.81 462 88.39 461.58Q87.97 461.16 87.97 460.38L87.97 460.38L87.97 449.32Q87.97 448.56 88.37 448.14Q88.77 447.72 89.53 447.72L89.53 447.72Q90.27 447.72 90.67 448.14Q91.07 448.56 91.07 449.32L91.07 449.32L91.07 453.58L94.05 453.58Q95.57 453.58 96.66 454.07Q97.75 454.56 98.34 455.49Q98.93 456.42 98.93 457.78L98.93 457.78Q98.93 459.82 97.63 460.91Q96.33 462 94.05 462L94.05 462M91.07 455.98L91.07 459.6L93.63 459.6Q94.83 459.6 95.39 459.15Q95.95 458.7 95.95 457.78L95.95 457.78Q95.95 456.86 95.39 456.42Q94.83 455.98 93.63 455.98L93.63 455.98L91.07 455.98M102.15 462.18L102.15 462.18Q101.39 462.18 100.99 461.76Q100.59 461.34 100.59 460.58L100.59 460.58L100.59 449.32Q100.59 448.56 100.99 448.14Q101.39 447.72 102.15 447.72L102.15 447.72Q102.91 447.72 103.31 448.14Q103.71 448.56 103.71 449.32L103.71 449.32L103.71 460.58Q103.71 461.34 103.32 461.76Q102.93 462.18 102.15 462.18M121.93 465.56L121.93 465.56Q121.25 465.56 120.9 465.21Q120.55 464.86 120.55 464.18L120.55 464.18L120.55 460.96Q120.55 459.56 121.95 459.56L121.95 459.56Q122.77 458.56 123.21 456.9L123.21 456.9Q123.75 454.82 123.75 451.62L123.75 451.62L123.75 449.52Q123.75 448.74 124.17 448.32Q124.59 447.9 125.39 447.9L125.39 447.9L132.47 447.9Q133.25 447.9 133.67 448.32Q134.09 448.74 134.09 449.52L134.09 449.52L134.09 459.56L134.69 459.56Q135.37 459.56 135.73 459.92Q136.09 460.28 136.09 460.96L136.09 460.96L136.09 464.18Q136.09 465.56 134.75 465.56L134.75 465.56Q134.09 465.56 133.73 465.21Q133.37 464.86 133.37 464.18L133.37 464.18L133.37 462L123.29 462L123.29 464.18Q123.29 465.56 121.93 465.56M125.09 459.56L125.09 459.56L130.97 459.56L130.97 450.32L126.61 450.32L126.61 451.92Q126.61 454.6 126.23 456.47Q125.85 458.34 125.09 459.56M153.73 462.18L153.73 462.18Q152.97 462.18 152.57 461.76Q152.17 461.34 152.17 460.58L152.17 460.58L152.17 450.46L147.81 450.46L147.81 453.02Q147.81 454.7 147.57 456.06Q147.33 457.42 146.87 458.51Q146.41 459.6 145.74 460.44Q145.07 461.28 144.21 461.88L144.21 461.88Q143.69 462.26 143.14 462.17Q142.59 462.08 142.19 461.56L142.19 461.56Q141.79 461.02 141.92 460.49Q142.05 459.96 142.57 459.56L142.57 459.56Q143.19 459.1 143.64 458.45Q144.09 457.8 144.38 456.92Q144.67 456.04 144.81 454.87Q144.95 453.7 144.95 452.22L144.95 452.22L144.95 449.52Q144.95 448.74 145.37 448.32Q145.79 447.9 146.59 447.9L146.59 447.9L153.65 447.9Q154.45 447.9 154.87 448.32Q155.29 448.74 155.29 449.52L155.29 449.52L155.29 460.58Q155.29 461.34 154.89 461.76Q154.49 462.18 153.73 462.18M172.71 462.18L172.71 462.18Q171.97 462.18 171.56 461.76Q171.15 461.34 171.15 460.58L171.15 460.58L171.15 456.54L169.83 456.54Q169.43 456.54 169.1 456.63Q168.77 456.72 168.52 456.92Q168.27 457.12 168.07 457.5L168.07 457.5L166.03 461.24Q165.71 461.82 165.25 462.02Q164.79 462.22 164.33 462.14Q163.87 462.06 163.53 461.74Q163.19 461.42 163.11 460.95Q163.03 460.48 163.33 459.9L163.33 459.9L164.47 457.82Q164.89 457.02 165.55 456.58L165.55 456.58Q165.79 456.42 166.09 456.32L166.09 456.32Q164.93 456.04 164.17 455.36L164.17 455.36Q162.89 454.22 162.89 452.22L162.89 452.22Q162.89 450.86 163.46 449.9Q164.03 448.94 165.13 448.42Q166.23 447.9 167.81 447.9L167.81 447.9L172.63 447.9Q173.43 447.9 173.85 448.32Q174.27 448.74 174.27 449.52L174.27 449.52L174.27 460.58Q174.27 461.34 173.87 461.76Q173.47 462.18 172.71 462.18M168.35 454.3L168.35 454.3L171.15 454.3L171.15 450.32L168.35 450.32Q167.13 450.32 166.5 450.82Q165.87 451.32 165.87 452.3L165.87 452.3Q165.87 453.3 166.5 453.8Q167.13 454.3 168.35 454.3M198.97 462L193.91 462Q193.13 462 192.71 461.58Q192.29 461.16 192.29 460.38L192.29 460.38L192.29 449.52Q192.29 448.74 192.71 448.32Q193.13 447.9 193.91 447.9L193.91 447.9L198.75 447.9Q200.25 447.9 201.31 448.34Q202.37 448.78 202.92 449.6Q203.47 450.42 203.47 451.56L203.47 451.56Q203.47 452.82 202.75 453.7L202.75 453.7Q202.21 454.36 201.35 454.7L201.35 454.7Q202.41 455 203.05 455.7L203.05 455.7Q203.85 456.6 203.85 458.02L203.85 458.02Q203.85 459.9 202.55 460.95Q201.25 462 198.97 462L198.97 462M195.25 456L195.25 459.7L198.55 459.7Q199.75 459.7 200.31 459.23Q200.87 458.76 200.87 457.84Q200.87 456.92 200.31 456.46Q199.75 456 198.55 456L198.55 456L195.25 456M195.25 450.2L195.25 453.7L198.21 453.7Q199.37 453.7 199.93 453.26Q200.49 452.82 200.49 451.94L200.49 451.94Q200.49 451.08 199.93 450.64Q199.37 450.2 198.21 450.2L198.21 450.2L195.25 450.2M218.03 462.22L218.03 462.22Q215.75 462.22 214.13 461.32Q212.51 460.42 211.64 458.79Q210.77 457.16 210.77 454.94L210.77 454.94Q210.77 453.28 211.26 451.95Q211.75 450.62 212.69 449.67Q213.63 448.72 214.98 448.2Q216.33 447.68 218.03 447.68L218.03 447.68Q219.03 447.68 220.06 447.93Q221.09 448.18 221.85 448.64L221.85 448.64Q222.35 448.92 222.53 449.34Q222.71 449.76 222.64 450.18Q222.57 450.6 222.3 450.9Q222.03 451.2 221.63 451.28Q221.23 451.36 220.73 451.1L220.73 451.1Q220.13 450.74 219.47 450.58Q218.81 450.42 218.13 450.42L218.13 450.42Q216.79 450.42 215.88 450.95Q214.97 451.48 214.51 452.48Q214.05 453.48 214.05 454.94L214.05 454.94Q214.05 456.38 214.51 457.4Q214.97 458.42 215.88 458.95Q216.79 459.48 218.13 459.48L218.13 459.48Q218.77 459.48 219.44 459.32Q220.11 459.16 220.73 458.82L220.73 458.82Q221.25 458.56 221.66 458.63Q222.07 458.7 222.34 458.99Q222.61 459.28 222.68 459.68Q222.75 460.08 222.59 460.48Q222.43 460.88 221.99 461.16L221.99 461.16Q221.25 461.66 220.17 461.94Q219.09 462.22 218.03 462.22M238.47 462L231.49 462Q230.71 462 230.29 461.58Q229.87 461.16 229.87 460.38L229.87 460.38L229.87 449.52Q229.87 448.74 230.29 448.32Q230.71 447.9 231.49 447.9L231.49 447.9L238.47 447.9Q239.07 447.9 239.38 448.21Q239.69 448.52 239.69 449.1L239.69 449.1Q239.69 449.7 239.38 450.01Q239.07 450.32 238.47 450.32L238.47 450.32L232.83 450.32L232.83 453.62L238.01 453.62Q238.63 453.62 238.94 453.93Q239.25 454.24 239.25 454.84L239.25 454.84Q239.25 455.44 238.94 455.75Q238.63 456.06 238.01 456.06L238.01 456.06L232.83 456.06L232.83 459.58L238.47 459.58Q239.07 459.58 239.38 459.89Q239.69 460.2 239.69 460.78L239.69 460.78Q239.69 461.38 239.38 461.69Q239.07 462 238.47 462L238.47 462M248.29 462.18L248.29 462.18Q247.99 462.18 247.74 462.08Q247.49 461.98 247.32 461.78Q247.15 461.58 247.06 461.29Q246.97 461 246.97 460.62L246.97 460.62L246.97 449.2Q246.97 448.5 247.34 448.11Q247.71 447.72 248.41 447.72L248.41 447.72Q249.13 447.72 249.49 448.11Q249.85 448.5 249.85 449.2L249.85 449.2L249.85 456.92L256.33 448.62Q256.69 448.14 257.03 447.93Q257.37 447.72 257.93 447.72L257.93 447.72Q258.31 447.72 258.59 447.9Q258.87 448.08 259.03 448.4Q259.19 448.72 259.19 449.14L259.19 449.14L259.19 460.68Q259.19 461.4 258.82 461.79Q258.45 462.18 257.75 462.18Q257.05 462.18 256.68 461.79Q256.31 461.4 256.31 460.68L256.31 460.68L256.31 452.94L249.83 461.26Q249.45 461.74 249.14 461.96Q248.83 462.18 248.29 462.18M253.07 446.8L253.07 446.8Q251.59 446.8 250.62 446.2Q249.65 445.6 249.21 444.6L249.21 444.6Q249.01 444.18 249.17 443.89Q249.33 443.6 249.67 443.48L249.67 443.48Q250.03 443.36 250.28 443.51Q250.53 443.66 250.79 444.04L250.79 444.04Q251.13 444.62 251.7 444.91Q252.27 445.2 253.09 445.2L253.09 445.2Q253.91 445.2 254.48 444.91Q255.05 444.62 255.39 444.04L255.39 444.04Q255.65 443.66 255.9 443.51Q256.15 443.36 256.51 443.48L256.51 443.48Q256.85 443.6 257 443.88Q257.15 444.16 256.95 444.6L256.95 444.6Q256.47 445.6 255.5 446.2Q254.53 446.8 253.07 446.8M284.07 462.22L284.07 462.22Q281.79 462.22 280.17 461.32Q278.55 460.42 277.68 458.79Q276.81 457.16 276.81 454.94L276.81 454.94Q276.81 453.28 277.3 451.95Q277.79 450.62 278.73 449.67Q279.67 448.72 281.02 448.2Q282.37 447.68 284.07 447.68L284.07 447.68Q285.07 447.68 286.1 447.93Q287.13 448.18 287.89 448.64L287.89 448.64Q288.39 448.92 288.57 449.34Q288.75 449.76 288.68 450.18Q288.61 450.6 288.34 450.9Q288.07 451.2 287.67 451.28Q287.27 451.36 286.77 451.1L286.77 451.1Q286.17 450.74 285.51 450.58Q284.85 450.42 284.17 450.42L284.17 450.42Q282.83 450.42 281.92 450.95Q281.01 451.48 280.55 452.48Q280.09 453.48 280.09 454.94L280.09 454.94Q280.09 456.38 280.55 457.4Q281.01 458.42 281.92 458.95Q282.83 459.48 284.17 459.48L284.17 459.48Q284.81 459.48 285.48 459.32Q286.15 459.16 286.77 458.82L286.77 458.82Q287.29 458.56 287.7 458.63Q288.11 458.7 288.38 458.99Q288.65 459.28 288.72 459.68Q288.79 460.08 288.63 460.48Q288.47 460.88 288.03 461.16L288.03 461.16Q287.29 461.66 286.21 461.94Q285.13 462.22 284.07 462.22M304.51 462L297.53 462Q296.75 462 296.33 461.58Q295.91 461.16 295.91 460.38L295.91 460.38L295.91 449.52Q295.91 448.74 296.33 448.32Q296.75 447.9 297.53 447.9L297.53 447.9L304.51 447.9Q305.11 447.9 305.42 448.21Q305.73 448.52 305.73 449.1L305.73 449.1Q305.73 449.7 305.42 450.01Q305.11 450.32 304.51 450.32L304.51 450.32L298.87 450.32L298.87 453.62L304.05 453.62Q304.67 453.62 304.98 453.93Q305.29 454.24 305.29 454.84L305.29 454.84Q305.29 455.44 304.98 455.75Q304.67 456.06 304.05 456.06L304.05 456.06L298.87 456.06L298.87 459.58L304.51 459.58Q305.11 459.58 305.42 459.89Q305.73 460.2 305.73 460.78L305.73 460.78Q305.73 461.38 305.42 461.69Q305.11 462 304.51 462L304.51 462M314.45 462.18L314.45 462.18Q313.77 462.18 313.41 461.8Q313.05 461.42 313.05 460.74L313.05 460.74L313.05 449.16Q313.05 448.48 313.44 448.1Q313.83 447.72 314.51 447.72L314.51 447.72Q315.11 447.72 315.46 447.95Q315.81 448.18 316.11 448.74L316.11 448.74L320.39 456.56L324.67 448.74Q324.97 448.18 325.32 447.95Q325.67 447.72 326.25 447.72L326.25 447.72Q326.93 447.72 327.3 448.1Q327.67 448.48 327.67 449.16L327.67 449.16L327.67 460.74Q327.67 461.42 327.31 461.8Q326.95 462.18 326.27 462.18Q325.59 462.18 325.22 461.8Q324.85 461.42 324.85 460.74L324.85 460.74L324.85 453.42L321.57 459.3Q321.33 459.68 321.06 459.87Q320.79 460.06 320.35 460.06Q319.91 460.06 319.63 459.86Q319.35 459.66 319.13 459.3L319.13 459.3L315.85 453.48L315.85 460.74Q315.85 461.42 315.5 461.8Q315.15 462.18 314.45 462.18M342.21 462L337.15 462Q336.37 462 335.95 461.58Q335.53 461.16 335.53 460.38L335.53 460.38L335.53 449.32Q335.53 448.56 335.93 448.14Q336.33 447.72 337.09 447.72L337.09 447.72Q337.83 447.72 338.23 448.14Q338.63 448.56 338.63 449.32L338.63 449.32L338.63 453.58L342.21 453.58Q343.73 453.58 344.82 454.07Q345.91 454.56 346.5 455.49Q347.09 456.42 347.09 457.78L347.09 457.78Q347.09 459.82 345.79 460.91Q344.49 462 342.21 462L342.21 462M338.63 455.98L338.63 459.6L341.79 459.6Q342.99 459.6 343.55 459.15Q344.11 458.7 344.11 457.78L344.11 457.78Q344.11 456.86 343.55 456.42Q342.99 455.98 341.79 455.98L341.79 455.98L338.63 455.98M355.47 462.18L355.47 462.18Q355.17 462.18 354.92 462.08Q354.67 461.98 354.5 461.78Q354.33 461.58 354.24 461.29Q354.15 461 354.15 460.62L354.15 460.62L354.15 449.2Q354.15 448.5 354.52 448.11Q354.89 447.72 355.59 447.72L355.59 447.72Q356.31 447.72 356.67 448.11Q357.03 448.5 357.03 449.2L357.03 449.2L357.03 456.92L363.51 448.62Q363.87 448.14 364.21 447.93Q364.55 447.72 365.11 447.72L365.11 447.72Q365.49 447.72 365.77 447.9Q366.05 448.08 366.21 448.4Q366.37 448.72 366.37 449.14L366.37 449.14L366.37 460.68Q366.37 461.4 366 461.79Q365.63 462.18 364.93 462.18Q364.23 462.18 363.86 461.79Q363.49 461.4 363.49 460.68L363.49 460.68L363.49 452.94L357.01 461.26Q356.63 461.74 356.32 461.96Q356.01 462.18 355.47 462.18" fill="#f0553a"/></svg>